<?xml version="1.0" encoding="utf-8"?>
<!-- Generator: Adobe Illustrator 16.0.0, SVG Export Plug-In . SVG Version: 6.00 Build 0)  -->
<!DOCTYPE svg PUBLIC "-//W3C//DTD SVG 1.1//EN" "http://www.w3.org/Graphics/SVG/1.1/DTD/svg11.dtd">
<svg version="1.1" id="Layer_1" xmlns="http://www.w3.org/2000/svg" xmlns:xlink="http://www.w3.org/1999/xlink" x="0px" y="0px"
	 width="1568px" height="1400px" viewBox="0 0 1568 1400" enable-background="new 0 0 1568 1400" xml:space="preserve">
<g>
	<g>
		<rect y="0" fill="#FFC2A4" width="1568" height="1400"/>
	</g>
	<path fill="#FFD0B8" d="M1265.9,1062.6v-711c0-64.4-52.2-116.5-116.5-116.5H353.1c-64.3,0-116.5,52.2-116.5,116.5v711H1265.9z"/>
	<path fill="#FFD0B8" d="M294.5,913.6c0,15.4-12.5,27.9-27.9,27.9h-60.1c-15.4,0-27.9-12.5-27.9-27.9l0,0
		c0-15.4,12.5-27.9,27.9-27.9h60.1C282,885.7,294.5,898.2,294.5,913.6L294.5,913.6z"/>
	<path fill="#FFD0B8" d="M1365.2,593.4c0,15.4-12.5,27.9-27.9,27.9H1217c-15.4,0-27.9-12.5-27.9-27.9l0,0
		c0-15.4,12.5-27.9,27.9-27.9h120.2C1352.7,565.5,1365.2,578,1365.2,593.4L1365.2,593.4z"/>
	<path fill="#FFD0B8" d="M1419.4,700c0,15.4-12.5,27.9-27.9,27.9h-120.2c-15.4,0-27.9-12.5-27.9-27.9l0,0
		c0-15.4,12.5-27.9,27.9-27.9h120.2C1406.9,672.1,1419.4,684.6,1419.4,700L1419.4,700z"/>
	<path fill="#CBC6FF" d="M1338.1,819.8c17.6-7.3,30-24.6,30-44.9c0-20-12.1-37.1-29.4-44.6c6.4-11.9,10.1-25.6,10.1-40.1
		c0-46.8-37.9-84.7-84.7-84.7c-9.7,0-19,1.7-27.7,4.7c-3.4-26.3-25.8-46.6-53-46.6c-10.6,0-20.4,3.1-28.7,8.4
		c-11.3-21.5-33.7-36.1-59.6-36.1c-37.2,0-67.3,30.1-67.3,67.3c0,26.9,15.8,50,38.5,60.8l-61,192.4l89.8,120l137.7-63.9
		c12.8,17.4,33.4,28.7,56.7,28.7c38.9,0,70.5-31.6,70.5-70.5C1360.1,850.7,1351.6,832.6,1338.1,819.8z"/>
	<path fill="#EBEBFF" d="M1318.5,761.1c0,11.4-9.3,20.7-20.7,20.7c-11.4,0-20.7-9.3-20.7-20.7s9.3-20.7,20.7-20.7
		C1309.2,740.4,1318.5,749.6,1318.5,761.1z"/>
	<path fill="#EBEBFF" d="M1313.7,847.1c0,22.9-18.5,41.4-41.4,41.4c-22.9,0-41.4-18.5-41.4-41.4c0-22.9,18.5-41.4,41.4-41.4
		C1295.1,805.7,1313.7,824.3,1313.7,847.1z"/>
	<polygon fill="#5B8F4E" points="461.9,916.4 488.8,916.4 515.1,916.4 459.3,789.6 508.2,789.6 399.1,525.9 399.1,569 399.1,916.4 
		399.1,916.4 399.1,1066.4 541.7,1066.4 	"/>
	<polygon fill="#68A459" points="290.1,789.6 338.9,789.6 283.2,916.4 309.2,916.4 332.9,916.4 256.6,1066.4 399.1,1066.4 
		399.1,916.4 399.1,916.4 399.1,573.2 399.1,525.9 	"/>
	<path fill="#A8AADA" d="M558.9,762.1c0,56.8-46,102.8-102.8,102.8c-56.8,0-102.8-46-102.8-102.8c0-56.8,46-102.8,102.8-102.8
		C512.9,659.3,558.9,705.3,558.9,762.1z"/>
	<path fill="#635346" d="M499.6,763.7c-0.1,0.3-11.1,27-34.7,46.7l-5.4-48.3h-2.9h-1.8h-5.4l-5.6,63.9c-23.8-13.6-41.8-46.6-42-46.9
		l-4.1,1.7c1,1.8,17.1,45.3,46.1,58.5v68.1h11h1.8h8.3v-81.7c29.8-21.2,38.7-59.1,39.3-60.6L499.6,763.7z"/>
	<path fill="#A8AADA" d="M1210.9,865.8c0,23-18.6,41.6-41.6,41.6h-59.8c-23,0-41.6-18.6-41.6-41.6v-134c0-23,18.6-41.6,41.6-41.6
		h59.8c23,0,41.6,18.6,41.6,41.6V865.8z"/>
	<path fill="#635346" d="M1179.7,797.5c-0.1,0.3-9.2,22.4-28.8,38.7l-4.5-40h-2.4h-1.5h-4.5l-4.7,53c-19.8-11.3-34.7-38.6-34.8-38.9
		l-3.4,1.4c0.8,1.5,14.2,37.6,38.3,48.5v56.5h9.1h1.5h6.8v-67.8c24.7-17.6,32.1-49,32.6-50.2L1179.7,797.5z"/>
	<g>
		<g>
			<polygon fill="#694945" points="1081.3,551.2 762.7,551.2 762.7,571.1 1081.3,579.7 			"/>
			<polygon fill="#74514D" points="762.7,571.1 762.7,895.1 1081.3,895.1 1081.3,579.7 			"/>
		</g>
		<g>
			<polygon fill="#3D6D80" points="762.7,571.1 762.7,551.2 756.9,551.2 643.3,405.2 529.6,551.2 529.2,551.2 529.2,553.6 
				643.3,415.5 			"/>
			<polygon fill="#498094" points="643.3,415.5 529.2,553.6 529.2,870.8 762.7,870.8 762.7,571.1 			"/>
		</g>
		<rect x="797.3" y="603.2" fill="#FFFFFF" width="116.4" height="145"/>
		<rect x="587.8" y="603.2" fill="#FFFFFF" width="116.4" height="145"/>
		<rect x="930.3" y="603.2" fill="#FFFFFF" width="116.4" height="145"/>
		<polygon fill="#E05E4B" points="643.3,405.2 636.5,396.5 516.1,551.2 529.2,551.2 529.6,551.2 		"/>
		<polygon fill="#FF6A56" points="972.6,396.5 650.1,396.5 636.5,396.5 643.3,405.2 756.9,551.2 762.7,551.2 766.9,551.2 
			827.6,551.2 995.9,551.2 1093,551.2 		"/>
		<g>
			<polygon fill="#634C49" points="899.8,617.1 811.2,617.1 811.2,733 899.8,618.5 			"/>
			<polygon fill="#54403E" points="811.2,733 811.2,734.4 899.8,734.4 899.8,618.5 			"/>
			<polygon fill="#54403E" points="601.6,734.4 690.3,734.4 690.3,617.5 601.6,732 			"/>
			<polygon fill="#634C49" points="601.6,617.1 601.6,732 690.3,617.5 690.3,617.1 			"/>
			<polygon fill="#54403E" points="944.2,733.9 944.2,734.4 1032.8,734.4 1032.8,619.4 			"/>
			<polygon fill="#634C49" points="1032.8,617.1 944.2,617.1 944.2,733.9 1032.8,619.4 			"/>
		</g>
	</g>
	<g>
		<polygon fill="#526182" points="1466.7,1174.5 101.3,1174.5 101.3,1199.5 1466.7,1201.1 		"/>
		<path fill="#59698D" d="M101.3,1199.5v21.1c0,19.1,15.5,34.5,34.5,34.5h1296.4c19.1,0,34.5-15.5,34.5-34.5v-19.4L101.3,1199.5z"/>
	</g>
	<path fill="#F1F2F2" d="M729.7,1064.4c-2.3-97.4-107.3-175.9-236.6-175.9c-129.3,0-234.3,78.5-236.6,175.9H729.7z"/>
	<path fill="#FFFFFF" d="M1477.1,1100.7h-352.8c2.1-13.2,3.2-26.7,3.2-40.4c0-165.3-153.8-299.2-343.5-299.2s-343.5,134-343.5,299.2
		c0,1.4,0.1,2.7,0.1,4H219.1c-17.2,0-31.2,14-31.2,31.2c0,1.8,0.2,3.5,0.5,5.2H90.9c-23,0-41.6,18.6-41.6,41.6
		c0,23,18.6,41.6,41.6,41.6h1386.3c23,0,41.6-18.6,41.6-41.6C1518.7,1119.3,1500.1,1100.7,1477.1,1100.7z"/>
	<path fill="#F1F2F2" d="M1436.8,1100.7c-2.8-118.8-130.8-214.4-288.4-214.4c-157.6,0-285.6,95.7-288.4,214.4H1436.8z"/>
	<path fill="#FFFFFF" d="M1025.3,1100.7c-1.1-24-22.9-43.2-49.7-43.2c-26.8,0-48.6,19.2-49.7,43.2H1025.3z"/>
	<path fill="#F1F2F2" d="M601.7,1100.7c-0.9-20.7-19.7-37.1-42.8-37.1c-23,0-41.8,16.5-42.8,37.1H601.7z"/>
	<path fill="#FFFFFF" d="M1195.1,1100.7c-1.6-35.2-33.6-63.4-72.9-63.4c-39.3,0-71.3,28.1-72.9,63.4H1195.1z"/>
	<path fill="#F1F2F2" d="M770,1100.7c-1.6-35.2-33.6-63.4-72.9-63.4c-39.3,0-71.3,28.1-72.9,63.4H770z"/>
	<rect x="776.7" y="325.6" fill="#E05E4A" width="68.2" height="70.9"/>
	<rect x="768.5" y="303" fill="#74514D" width="84.5" height="22.5"/>
	<circle fill="#EBEBFF" cx="1272.3" cy="676.9" r="30"/>
	<path fill="#EBEBFF" d="M1195.1,630.2c0,11.4-9.3,20.7-20.7,20.7c-11.4,0-20.7-9.3-20.7-20.7s9.3-20.7,20.7-20.7
		C1185.9,609.6,1195.1,618.8,1195.1,630.2z"/>
	<g>
		<g>
			<polygon fill="#5B8F4E" points="1441.7,978.8 1368.1,811.6 1368.1,839 1368.1,1059.2 1425,1059.2 1441.7,1059.2 1406.3,978.8 			
				"/>
			<polygon fill="#68A459" points="1294.6,978.8 1330,978.8 1294.6,1059.2 1311.1,1059.2 1368.1,1059.2 1368.1,841.6 1368.1,811.6 
							"/>
		</g>
		<rect x="1350.9" y="1059.2" fill="#635346" width="17.3" height="41.5"/>
		<rect x="1368.1" y="1059.2" fill="#54473D" width="17.3" height="41.5"/>
	</g>
	<g>
		<g>
			<polygon fill="#5B8F4E" points="592.9,973.4 516.1,798.8 516.1,827.4 516.1,1057.4 575.4,1057.4 592.9,1057.4 556,973.4 			"/>
			<polygon fill="#68A459" points="439.4,973.4 476.3,973.4 439.4,1057.4 456.6,1057.4 516.1,1057.4 516.1,830.2 516.1,798.8 			"/>
		</g>
		<rect x="498.1" y="1057.4" fill="#635346" width="18" height="43.4"/>
		<rect x="516.1" y="1057.4" fill="#54473D" width="18" height="43.4"/>
	</g>
	<g>
		<g>
			<polygon fill="#5B8F4E" points="1270.6,1001.6 1210.9,865.8 1210.9,888 1210.9,1067 1257,1067 1270.6,1067 1241.9,1001.6 			"/>
			<polygon fill="#68A459" points="1151.1,1001.6 1179.8,1001.6 1151.1,1067 1164.5,1067 1210.9,1067 1210.9,890.2 1210.9,865.8 			
				"/>
		</g>
		<rect x="1196.8" y="1067" fill="#635346" width="14" height="33.7"/>
		<rect x="1210.9" y="1067" fill="#54473D" width="14" height="33.7"/>
	</g>
	<g>
		<g>
			<polygon fill="#5B8F4E" points="404.7,1001.6 344.9,865.8 344.9,888 344.9,1067 391.1,1067 404.7,1067 375.9,1001.6 			"/>
			<polygon fill="#68A459" points="285.2,1001.6 313.9,1001.6 285.2,1067 298.6,1067 344.9,1067 344.9,890.2 344.9,865.8 			"/>
		</g>
		<rect x="330.9" y="1067" fill="#635346" width="14" height="33.7"/>
		<rect x="344.9" y="1067" fill="#54473D" width="14" height="33.7"/>
	</g>
	<path fill="#F1F2F2" d="M820.6,1047.6c1.6,7.2-2.9,14.3-10.1,15.9l0,0c-7.2,1.6-14.3-2.9-15.9-10.1l-5.9-26.4
		c-1.6-7.2,2.9-14.3,10.1-15.9l0,0c7.2-1.6,14.3,2.9,15.9,10.1L820.6,1047.6z"/>
	<path fill="#F1F2F2" d="M837.4,962.5c-1.8,7.1-9,11.4-16.1,9.6l0,0c-7.1-1.8-11.4-9-9.6-16.1l6.7-26.2c1.8-7.1,9-11.4,16.1-9.6l0,0
		c7.1,1.8,11.4,9,9.6,16.1L837.4,962.5z"/>
	<path fill="#F1F2F2" d="M881.8,906.7c-3.5,6.4-11.6,8.8-18,5.3l0,0c-6.4-3.5-8.8-11.6-5.3-18l13-23.7c3.5-6.4,11.6-8.8,18-5.3l0,0
		c6.4,3.5,8.8,11.6,5.3,18L881.8,906.7z"/>
	<path fill="#F1F2F2" d="M947.7,871.1c-4.6,5.7-13,6.6-18.7,2l0,0c-5.7-4.6-6.6-13-2-18.7l17-21.1c4.6-5.7,13-6.6,18.7-2l0,0
		c5.7,4.6,6.6,13,2,18.7L947.7,871.1z"/>
	<path fill="#F1F2F2" d="M858.3,1020.7c-3,6.7-10.8,9.7-17.5,6.8l0,0c-6.7-3-9.7-10.8-6.8-17.5l10.9-24.7c3-6.7,10.8-9.7,17.5-6.8
		l0,0c6.7,3,9.7,10.8,6.8,17.5L858.3,1020.7z"/>
	<path fill="#F1F2F2" d="M896.7,954.1c-5.9,4.3-14.2,3-18.6-3l0,0c-4.3-5.9-3-14.3,3-18.6l21.9-15.8c5.9-4.3,14.2-3,18.5,3l0,0
		c4.3,5.9,3,14.3-3,18.5L896.7,954.1z"/>
	<path fill="#F1F2F2" d="M958.8,913.7c-7.1,1.9-14.4-2.2-16.3-9.3l0,0c-1.9-7.1,2.2-14.4,9.3-16.3L978,881
		c7.1-1.9,14.4,2.2,16.3,9.3l0,0c1.9,7.1-2.2,14.4-9.3,16.3L958.8,913.7z"/>
	<path fill="#FFEAD1" d="M705.4,208.5h-26.3c-5.3,0-9.6-4.3-9.6-9.6c0-5.3,4.3-9.6,9.6-9.6H702c10.1,0,18.3-8.2,18.3-18.3
		c0-10.1-8.2-18.3-18.3-18.3H524.5c-10.1,0-18.3,8.2-18.3,18.3c0,10.1,8.2,18.3,18.3,18.3H568c5.3,0,9.6,4.3,9.6,9.6
		c0,5.3-4.3,9.6-9.6,9.6H449.8c-14.5,0-26.3,11.8-26.3,26.3c0,14.5,11.8,26.3,26.3,26.3h255.6c14.5,0,26.3-11.8,26.3-26.3
		C731.7,220.3,719.9,208.5,705.4,208.5z"/>
	<path fill="#FFEAD1" d="M1163.3,301c0,10.5-8.5,19.1-19.1,19.1H930.7c-10.5,0-19.1-8.5-19.1-19.1l0,0c0-10.5,8.5-19.1,19.1-19.1
		h213.5C1154.8,281.9,1163.3,290.5,1163.3,301L1163.3,301z"/>
	<path fill="#FFEAD1" d="M1037.5,163c0,13.1-10.6,23.7-23.7,23.7H886.5c-13.1,0-23.7-10.6-23.7-23.7l0,0c0-13.1,10.6-23.7,23.7-23.7
		h127.3C1026.9,139.3,1037.5,149.9,1037.5,163L1037.5,163z"/>
	<path fill="#FFEAD1" d="M1417.1,350h-60.2c-6.4,0-11.5-5.2-11.5-11.5c0-6.4,5.2-11.5,11.5-11.5h60.6c11.4,0,20.7-9.3,20.7-20.7
		c0-11.4-9.3-20.7-20.7-20.7h-172.2c-11.4,0-20.7,9.3-20.7,20.7c0,11.4,9.3,20.7,20.7,20.7h43.8c6.4,0,11.5,5.2,11.5,11.5
		c0,6.4-5.2,11.5-11.5,11.5h-43.4c-18.1,0-32.7,14.7-32.7,32.7c0,18.1,14.7,32.7,32.7,32.7h171.3c18.1,0,32.7-14.7,32.7-32.7
		C1449.8,364.6,1435.1,350,1417.1,350z"/>
	<path fill="#FFEAD1" d="M1148,163c0,13.1-10.6,23.7-23.7,23.7s-23.7-10.6-23.7-23.7c0-13.1,10.6-23.7,23.7-23.7
		S1148,149.9,1148,163z"/>
	<path fill="#FFEAD1" d="M253.1,396.5c0-13.1,10.6-23.7,23.7-23.7h204.5c13.1,0,23.7,10.6,23.7,23.7l0,0c0,13.1-10.6,23.7-23.7,23.7
		H276.8C263.7,420.2,253.1,409.6,253.1,396.5L253.1,396.5z"/>
	<circle fill="#FFEAD1" cx="166.3" cy="396.5" r="23.7"/>
	<circle fill="#FFEAD1" cx="1140.6" cy="388.1" r="26.6"/>
	<path fill="#FFEAD1" d="M379,490.7c0,9.3,7.5,16.8,16.8,16.8h91.5c9.3,0,16.8-7.5,16.8-16.8l0,0c0-9.3-7.5-16.8-16.8-16.8h-91.5
		C386.6,473.9,379,481.4,379,490.7L379,490.7z"/>
	<path fill="#FFEAD1" d="M1318.5,490.7c0,9.3-7.5,16.8-16.8,16.8h-88c-9.3,0-16.8-7.5-16.8-16.8l0,0c0-9.3,7.5-16.8,16.8-16.8h88
		C1311,473.9,1318.5,481.4,1318.5,490.7L1318.5,490.7z"/>
	<path fill="#FFD0B8" d="M285.2,687.2c0,15.4-12.5,27.9-27.9,27.9H137c-15.4,0-27.9-12.5-27.9-27.9l0,0c0-15.4,12.5-27.9,27.9-27.9
		h120.2C272.7,659.3,285.2,671.8,285.2,687.2L285.2,687.2z"/>
	<path fill="#FFD0B8" d="M285.2,805.7c0,15.4-12.5,27.9-27.9,27.9H137c-15.4,0-27.9-12.5-27.9-27.9l0,0c0-15.4,12.5-27.9,27.9-27.9
		h120.2C272.7,777.8,285.2,790.3,285.2,805.7L285.2,805.7z"/>
	<path fill="#FFD0B8" d="M294.5,579.7c0,15.4-12.5,27.9-27.9,27.9h-60.1c-15.4,0-27.9-12.5-27.9-27.9l0,0
		c0-15.4,12.5-27.9,27.9-27.9h60.1C282,551.8,294.5,564.3,294.5,579.7L294.5,579.7z"/>
</g>
</svg>
