<?xml version="1.0" standalone="no"?><svg xmlns="http://www.w3.org/2000/svg" viewBox="0 0 1440 320"><path fill="#273036" fill-opacity="1" d="M0,96L30,112C60,128,120,160,180,186.7C240,213,300,235,360,250.7C420,267,480,277,540,282.7C600,288,660,288,720,288C780,288,840,288,900,272C960,256,1020,224,1080,213.3C1140,203,1200,213,1260,229.3C1320,245,1380,267,1410,277.3L1440,288L1440,320L1410,320C1380,320,1320,320,1260,320C1200,320,1140,320,1080,320C1020,320,960,320,900,320C840,320,780,320,720,320C660,320,600,320,540,320C480,320,420,320,360,320C300,320,240,320,180,320C120,320,60,320,30,320L0,320Z"></path></svg>